<svg width="134" height="56" viewBox="0 0 134 56" fill="none" xmlns="http://www.w3.org/2000/svg">
<path d="M9.23 28.448C8.13 35.576 7.954 40.856 8.702 44.288C9.45 47.676 11.364 49.37 14.444 49.37C15.852 49.37 17.194 48.864 18.47 47.852C19.746 46.796 20.824 45.41 21.704 43.694C22.628 41.934 23.31 39.976 23.75 37.82L24.41 32.738H16.82L17.612 26.402H31.67L27.71 54.98H22.232L23.222 48.248C21.858 50.536 20.208 52.34 18.272 53.66C16.38 54.98 14.312 55.64 12.068 55.64C7.756 55.64 4.698 53.44 2.894 49.04C1.134 44.596 0.87 37.732 2.102 28.448C3.378 18.988 5.556 12.058 8.636 7.658C11.716 3.214 15.786 0.991997 20.846 0.991997C23.178 0.991997 25.092 1.52 26.588 2.576C28.128 3.632 29.338 4.996 30.218 6.668C31.098 8.34 31.714 10.144 32.066 12.08L25.268 13.532C24.96 11.684 24.366 10.232 23.486 9.176C22.65 8.12 21.528 7.592 20.12 7.592C18.008 7.592 16.27 8.34 14.906 9.836C13.586 11.288 12.486 13.554 11.606 16.634C10.77 19.67 9.978 23.608 9.23 28.448ZM91.0664 54.98H84.4664L91.0664 7.922H80.2424L81.0344 1.652H109.348L108.49 7.922H97.6664L91.0664 54.98Z" fill="#4D9375"/>
<path d="M45.5006 55.64C41.2326 55.64 38.3066 53.968 36.7226 50.624C35.1386 47.236 34.8086 42 35.7326 34.916C36.6566 27.744 38.3286 22.486 40.7486 19.142C43.2126 15.754 46.5346 14.06 50.7146 14.06C55.0266 14.06 57.9746 15.754 59.5586 19.142C61.1426 22.486 61.4726 27.744 60.5486 34.916C59.6246 42 57.9306 47.236 55.4666 50.624C53.0466 53.968 49.7246 55.64 45.5006 55.64ZM45.9626 49.7C47.9866 49.7 49.6366 48.512 50.9126 46.136C52.2326 43.716 53.2446 39.976 53.9486 34.916C54.6966 29.812 54.7626 26.05 54.1466 23.63C53.5306 21.21 52.2106 20 50.1866 20C48.2506 20 46.6446 21.21 45.3686 23.63C44.0926 26.05 43.0806 29.812 42.3326 34.916C41.6286 39.976 41.5626 43.716 42.1346 46.136C42.7066 48.512 43.9826 49.7 45.9626 49.7ZM117.495 55.64C113.227 55.64 110.301 53.968 108.717 50.624C107.133 47.236 106.803 42 107.727 34.916C108.651 27.744 110.323 22.486 112.743 19.142C115.207 15.754 118.529 14.06 122.709 14.06C127.021 14.06 129.969 15.754 131.553 19.142C133.137 22.486 133.467 27.744 132.543 34.916C131.619 42 129.925 47.236 127.461 50.624C125.041 53.968 121.719 55.64 117.495 55.64ZM117.957 49.7C119.981 49.7 121.631 48.512 122.907 46.136C124.227 43.716 125.239 39.976 125.943 34.916C126.691 29.812 126.757 26.05 126.141 23.63C125.525 21.21 124.205 20 122.181 20C120.245 20 118.639 21.21 117.363 23.63C116.087 26.05 115.075 29.812 114.327 34.916C113.623 39.976 113.557 43.716 114.129 46.136C114.701 48.512 115.977 49.7 117.957 49.7Z" fill="#555555"/>
</svg>
